<?xml version="1.0" encoding="UTF-8"?>
<!DOCTYPE svg PUBLIC "-//W3C//DTD SVG 1.1//EN" "http://www.w3.org/Graphics/SVG/1.1/DTD/svg11.dtd">
<!-- Creator: CorelDRAW X7 -->
<svg xmlns="http://www.w3.org/2000/svg" xml:space="preserve" width="297mm" height="210mm" version="1.1" style="shape-rendering:geometricPrecision; text-rendering:geometricPrecision; image-rendering:optimizeQuality; fill-rule:evenodd; clip-rule:evenodd"
viewBox="0 0 29700 21000"
 xmlns:xlink="http://www.w3.org/1999/xlink">
 <defs>
  <style type="text/css">
   <![CDATA[
    .fil2 {fill:#5B5B5B}
    .fil0 {fill:#2B2A29}
    .fil1 {fill:#00A0E3}
   ]]>
  </style>
 </defs>
 <g id="Слой_x0020_1">
  <metadata id="CorelCorpID_0Corel-Layer"/>
  <g id="_1480008737328">
   <path class="fil0" d="M15912 6982l952 -634c-1237,-2118 -3546,-3547 -6186,-3547 -3987,0 -7204,3244 -7204,7231 0,3987 3217,7204 7204,7204 2667,0 4977,-1430 6241,-3602l-985 -587c-1051,1776 -2949,2942 -5140,2942 -3298,0 -5959,-2661 -5959,-5959 0,-3298 2661,-5982 5959,-5982 2184,0 4094,1182 5118,2934z"/>
   <path class="fil0" d="M10362 11092l0 -388 1078 0 0 -726 -1078 0 0 -1120 1698 0 0 -726 -1698 0 -726 0 0 726 0 1120 0 726 0 388 0 726 726 0 1818 0 0 -726 -1818 0zm3037 726l0 -3686 -726 0 0 3686 726 0zm1177 -726l0 -2960 -726 0 0 2960 0 726 726 0 1776 0 0 -726 -1776 0zm3129 726l0 -3686 -726 0 0 3686 726 0zm2790 -3686l0 2093 0 49 -1599 -2142 -726 0 0 3686 726 0 0 -2389 0 -85 1599 2142 0 36 0 296 8 0 718 0 0 -226 0 -3460 -726 0zm4031 1550l-768 0 0 691 733 0 0 363c-211,237 -528,391 -874,391 -641,0 -1162,-510 -1162,-1149 0,-641 521,-1155 1162,-1155 268,0 522,91 719,246l465 -500c-317,-275 -733,-437 -1184,-437 -1022,0 -1846,824 -1846,1846 0,1016 824,1840 1846,1840 677,0 1276,-374 1593,-914l0 -28 0 -448 0 -450 0 -7 0 -289 -684 0z"/>
   <path class="fil1" d="M14780 7706l1132 -724c-1024,-1752 -2934,-2934 -5118,-2934 -3298,0 -5959,2684 -5959,5982 0,3298 2661,5959 5959,5959 2206,0 4094,-1144 5141,-2941l-1142 -718c-793,1322 -2207,2178 -3845,2178 -2480,0 -4481,-2001 -4481,-4481 0,-2480 2001,-4499 4481,-4499 1642,0 3041,882 3832,2178z"/>
   <path class="fil2" d="M12573 12330c-456,326 -1015,519 -1625,519 -1556,0 -2822,-1266 -2822,-2822 0,-1557 1266,-2822 2822,-2822 601,0 1154,186 1608,501l2224 0c-774,-1301 -2202,-2178 -3832,-2178 -2480,0 -4481,2019 -4481,4499 0,2480 2001,4481 4481,4481 1634,0 3051,-862 3846,-2178l-2221 0z"/>
  </g>
 </g>
</svg>
