<?xml version="1.0" encoding="UTF-8" standalone="no"?>
<svg
   xmlns:dc="http://purl.org/dc/elements/1.1/"
   xmlns:cc="http://creativecommons.org/ns#"
   xmlns:rdf="http://www.w3.org/1999/02/22-rdf-syntax-ns#"
   xmlns:svg="http://www.w3.org/2000/svg"
   xmlns="http://www.w3.org/2000/svg"
   id="svg5088"
   version="1.1"
   viewBox="0 0 17.846042 17.836194"
   height="17.836195mm"
   width="17.846043mm">
  <defs
     id="defs5082">
    <clipPath
       id="clipPath26"
       clipPathUnits="userSpaceOnUse">
      <path
         id="path24"
         d="m 46.87,357.72 h 57.62 v -61.3 H 46.87 Z" />
    </clipPath>
    <clipPath
       id="clipPath68"
       clipPathUnits="userSpaceOnUse">
      <path
         id="path66"
         d="m 134.76,353.97 h 53.44 v -53.8 h -53.44 z" />
    </clipPath>
    <clipPath
       id="clipPath92"
       clipPathUnits="userSpaceOnUse">
      <path
         id="path90"
         d="m 223.45,354.72 h 47.18 v -55.29 h -47.18 z" />
    </clipPath>
    <clipPath
       id="clipPath340"
       clipPathUnits="userSpaceOnUse">
      <path
         id="path338"
         d="m 297.63,333.83 h 56.08 V 295.5 h -56.08 z" />
    </clipPath>
    <clipPath
       id="clipPath220"
       clipPathUnits="userSpaceOnUse">
      <path
         id="path218"
         d="M 378.05,353.71 H 427.8 V 300.43 H 378.05 Z" />
    </clipPath>
    <clipPath
       id="clipPath1224"
       clipPathUnits="userSpaceOnUse">
      <path
         id="path1222"
         d="m 450.12,353.2 h 52.25 v -52.25 h -52.25 z" />
    </clipPath>
    <clipPath
       id="clipPath904"
       clipPathUnits="userSpaceOnUse">
      <path
         id="path902"
         d="m 520.935,347.63 h 55.64 v -41.12 h -55.64 z" />
    </clipPath>
    <clipPath
       id="clipPath1512"
       clipPathUnits="userSpaceOnUse">
      <path
         id="path1510"
         d="m 590.789,353.968 h 54.478 v -53.795 h -54.478 z" />
    </clipPath>
    <clipPath
       id="clipPath384"
       clipPathUnits="userSpaceOnUse">
      <path
         id="path382"
         d="M 46.97,277.28 H 104.4 V 231.61 H 46.97 Z" />
    </clipPath>
    <clipPath
       id="clipPath312"
       clipPathUnits="userSpaceOnUse">
      <path
         id="path310"
         d="m 127.4,282.06 h 68.16 V 240.85 H 127.4 Z" />
    </clipPath>
    <clipPath
       id="clipPath544"
       clipPathUnits="userSpaceOnUse">
      <path
         id="path542"
         d="m 208.18,291.795 h 77.715 V 231.114 H 208.18 Z" />
    </clipPath>
    <clipPath
       id="clipPath144"
       clipPathUnits="userSpaceOnUse">
      <path
         id="path142"
         d="m 309.62,285.63 h 32.112 V 237.28 H 309.62 Z" />
    </clipPath>
    <clipPath
       id="clipPath988"
       clipPathUnits="userSpaceOnUse">
      <path
         id="path986"
         d="m 381.1,282.73 h 43.66 V 240.17 H 381.1 Z" />
    </clipPath>
    <clipPath
       id="clipPath790"
       clipPathUnits="userSpaceOnUse">
      <path
         id="path788"
         d="m 453.3,278.98 h 46.82 V 242.6 H 453.3 Z" />
    </clipPath>
    <clipPath
       id="clipPath1144"
       clipPathUnits="userSpaceOnUse">
      <path
         id="path1142"
         d="m 523.77,273.9 h 51.05 v -26.22 h -51.05 z" />
    </clipPath>
    <clipPath
       id="clipPath1390"
       clipPathUnits="userSpaceOnUse">
      <path
         id="path1388"
         d="m 595.56,285.6 h 44.93 v -45.9 h -44.93 z" />
    </clipPath>
    <clipPath
       id="clipPath1052"
       clipPathUnits="userSpaceOnUse">
      <path
         id="path1050"
         d="M 54.2225,216.55 H 97.1436 V 173.66 H 54.2225 Z" />
    </clipPath>
  </defs>
  <metadata
     id="metadata5085">
    <rdf:RDF>
      <cc:Work
         rdf:about="">
        <dc:format>image/svg+xml</dc:format>
        <dc:type
           rdf:resource="http://purl.org/dc/dcmitype/StillImage" />
        <dc:title></dc:title>
      </cc:Work>
    </rdf:RDF>
  </metadata>
  <g
     transform="translate(-73.032139,-83.873196)"
     id="layer1">
    <g
       id="g8031"
       transform="matrix(0.35277777,0,0,-0.35277777,55.256575,161.62007)">
      <g
         id="g1046">
        <g
           id="g1048" />
        <g
           id="g1060">
          <g
             clip-path="url(#clipPath1052)"
             id="g1058">
            <g
               transform="translate(97.1201,182.7002)"
               id="g1056">
              <path
                 d="m 0,0 c 0.1,-0.7 -0.12,-1.311 -0.63,-1.82 l -6.04,-6 C -6.95,-8.12 -7.3,-8.38 -7.74,-8.59 -8.18,-8.8 -8.61,-8.94 -9.04,-9 -9.07,-9 -9.16,-9 -9.31,-9.021 -9.46,-9.03 -9.66,-9.04 -9.9,-9.04 c -0.58,0 -1.51,0.09 -2.8,0.29 -1.28,0.2 -2.86,0.68 -4.72,1.46 -1.87,0.769 -3.98,1.93 -6.34,3.47 -2.36,1.549 -4.88,3.67 -7.55,6.36 -2.12,2.09 -3.87,4.09 -5.27,6 -1.39,1.91 -2.51,3.67 -3.36,5.3 -0.85,1.62 -1.48,3.09 -1.91,4.4 -0.42,1.32 -0.71,2.46 -0.86,3.41 -0.15,0.96 -0.21,1.71 -0.18,2.25 0.03,0.55 0.04,0.85 0.04,0.91 0.06,0.42 0.2,0.85 0.41,1.29 0.21,0.45 0.47,0.8 0.77,1.07 l 6.05,6.05 c 0.42,0.42 0.91,0.63 1.45,0.63 0.4,0 0.74,-0.11 1.05,-0.34 0.3,-0.22 0.56,-0.5 0.77,-0.84 l 4.86,-9.22 c 0.27,-0.49 0.35,-1.02 0.23,-1.59 -0.12,-0.58 -0.38,-1.06 -0.77,-1.46 l -2.23,-2.23 c -0.06,-0.05 -0.11,-0.15 -0.16,-0.29 -0.05,-0.14 -0.07,-0.25 -0.07,-0.34 0.12,-0.641 0.4,-1.36 0.82,-2.181 0.36,-0.729 0.92,-1.619 1.68,-2.659 0.76,-1.051 1.84,-2.25 3.23,-3.61 1.36,-1.401 2.57,-2.481 3.63,-3.25 1.06,-0.771 1.95,-1.34 2.66,-1.71 0.72,-0.36 1.26,-0.58 1.64,-0.651 l 0.57,-0.12 c 0.06,0 0.16,0.031 0.29,0.071 0.14,0.049 0.24,0.1 0.3,0.16 l 2.59,2.639 c 0.54,0.481 1.18,0.721 1.91,0.721 0.51,0 0.92,-0.091 1.22,-0.27 H -9.9 L -1.13,1.5 C -0.49,1.1 -0.12,0.609 0,0"
                 style="fill:#00607f;fill-opacity:1;fill-rule:nonzero;stroke:none"
                 id="path1054" />
            </g>
          </g>
        </g>
      </g>
      <g
         id="g1062"
         transform="translate(97.1201,182.7002)">
        <path
           d="m 0,0 c 0.1,-0.7 -0.12,-1.311 -0.63,-1.82 l -6.04,-6 C -6.95,-8.12 -7.3,-8.38 -7.74,-8.59 -8.18,-8.8 -8.61,-8.94 -9.04,-9 -9.07,-9 -9.16,-9 -9.31,-9.021 -9.46,-9.03 -9.66,-9.04 -9.9,-9.04 c -0.58,0 -1.51,0.09 -2.8,0.29 -1.28,0.2 -2.86,0.68 -4.72,1.46 -1.87,0.769 -3.98,1.93 -6.34,3.47 -2.36,1.549 -4.88,3.67 -7.55,6.36 -2.12,2.09 -3.87,4.09 -5.27,6 -1.39,1.91 -2.51,3.67 -3.36,5.3 -0.85,1.62 -1.48,3.09 -1.91,4.4 -0.42,1.32 -0.71,2.46 -0.86,3.41 -0.15,0.96 -0.21,1.71 -0.18,2.25 0.03,0.55 0.04,0.85 0.04,0.91 0.06,0.42 0.2,0.85 0.41,1.29 0.21,0.45 0.47,0.8 0.77,1.07 l 6.05,6.05 c 0.42,0.42 0.91,0.63 1.45,0.63 0.4,0 0.74,-0.11 1.05,-0.34 0.3,-0.22 0.56,-0.5 0.77,-0.84 l 4.86,-9.22 c 0.27,-0.49 0.35,-1.02 0.23,-1.59 -0.12,-0.58 -0.38,-1.06 -0.77,-1.46 l -2.23,-2.23 c -0.06,-0.05 -0.11,-0.15 -0.16,-0.29 -0.05,-0.14 -0.07,-0.25 -0.07,-0.34 0.12,-0.641 0.4,-1.36 0.82,-2.181 0.36,-0.729 0.92,-1.619 1.68,-2.659 0.76,-1.051 1.84,-2.25 3.23,-3.61 1.36,-1.401 2.57,-2.481 3.63,-3.25 1.06,-0.771 1.95,-1.34 2.66,-1.71 0.72,-0.36 1.26,-0.58 1.64,-0.651 l 0.57,-0.12 c 0.06,0 0.16,0.031 0.29,0.071 0.14,0.049 0.24,0.1 0.3,0.16 l 2.59,2.639 c 0.54,0.481 1.18,0.721 1.91,0.721 0.51,0 0.92,-0.091 1.22,-0.27 H -9.9 L -1.13,1.5 C -0.49,1.1 -0.12,0.609 0,0 Z"
           style="fill:none;stroke:#141414;stroke-width:2;stroke-linecap:round;stroke-linejoin:round;stroke-miterlimit:10;stroke-dasharray:none;stroke-opacity:1"
           id="path1064" />
      </g>
    </g>
  </g>
</svg>
